<svg width="106" height="90" viewBox="0 0 106 90" fill="none" xmlns="http://www.w3.org/2000/svg">
<path d="M0 12.6117C0 9.2669 1.32873 6.05905 3.69389 3.69389C6.05905 1.32873 9.2669 0 12.6117 0H88.2822C91.627 0 94.8348 1.32873 97.2 3.69389C99.5652 6.05905 100.894 9.2669 100.894 12.6117V29.4862C100.238 29.1508 99.5613 28.8559 98.8688 28.6034L98.7967 28.5746L97.95 28.2935L95.2943 27.4936C94.7673 27.334 94.2304 27.2088 93.6872 27.1188V12.6117C93.6872 11.1782 93.1177 9.80344 92.1041 8.7898C91.0904 7.77616 89.7157 7.20671 88.2822 7.20671H12.6117C11.1782 7.20671 9.80344 7.77616 8.7898 8.7898C7.77616 9.80344 7.20671 11.1782 7.20671 12.6117V59.4553C7.20671 60.8888 7.77616 62.2636 8.7898 63.2773C9.80344 64.2909 11.1782 64.8604 12.6117 64.8604H28.8268V57.6536C28.8268 55.7423 29.5861 53.9093 30.9376 52.5577C32.2891 51.2062 34.1222 50.4469 36.0335 50.4469H64.8604C66.7717 50.4469 68.6048 51.2062 69.9563 52.5577C71.3078 53.9093 72.0671 55.7423 72.0671 57.6536V60.821C70.5306 60.8184 69.0112 61.1432 67.61 61.7738C66.2089 62.4045 64.9583 63.3265 63.9415 64.4784L63.855 64.5793L63.3614 65.1991L58.4031 72.0671H12.6117C9.2669 72.0671 6.05905 70.7383 3.69389 68.3732C1.32873 66.008 0 62.8002 0 59.4553V12.6117ZM64.8604 28.8268C64.8604 32.6495 63.3418 36.3156 60.6388 39.0186C57.9357 41.7217 54.2696 43.2402 50.4469 43.2402C46.6243 43.2402 42.9582 41.7217 40.2551 39.0186C37.5521 36.3156 36.0335 32.6495 36.0335 28.8268C36.0335 25.0042 37.5521 21.338 40.2551 18.635C42.9582 15.932 46.6243 14.4134 50.4469 14.4134C54.2696 14.4134 57.9357 15.932 60.6388 18.635C63.3418 21.338 64.8604 25.0042 64.8604 28.8268ZM85.349 36.0768C86.1468 34.636 87.414 33.512 88.9396 32.8918C90.4652 32.2716 92.1573 32.1926 93.734 32.668L96.3176 33.4463L97.0095 33.6769C99.1496 34.4599 101.038 35.8082 102.473 37.5783C103.908 39.3485 104.837 41.4745 105.16 43.7303C106.23 51.182 103.838 59.8949 98.0689 69.887C92.3143 79.8539 85.9796 86.2751 79.0071 89.0857C76.7668 89.9886 74.3144 90.2292 71.9413 89.7789C69.5683 89.3285 67.3744 88.2062 65.6207 86.5453L63.6677 84.6932L63.228 84.2392C62.1419 83.0137 61.5055 81.4549 61.4237 79.8195C61.3418 78.184 61.8193 76.5694 62.7776 75.2416L67.6674 68.4673L67.9953 68.0565C68.682 67.2783 69.5783 66.7143 70.5771 66.4319C71.5758 66.1495 72.6347 66.1606 73.6273 66.4638L81.0178 68.7232L81.2088 68.7592H81.3637C82.2465 68.6619 84.041 66.8782 86.2463 63.0587C88.6965 58.8139 89.201 56.3312 88.5272 55.6898L84.7689 52.1874L84.2896 51.7081C83.0932 50.4116 82.3044 48.7919 82.0212 47.0506C81.738 45.3092 81.973 43.523 82.697 41.9142L85.0824 36.6137L85.349 36.0768Z" fill="url(#paint0_linear)"/>
<defs>
<linearGradient id="paint0_linear" x1="52.7043" y1="0" x2="52.7043" y2="90" gradientUnits="userSpaceOnUse">
<stop stop-color="#2D01DD"/>
<stop offset="1" stop-color="#CB1C57"/>
</linearGradient>
</defs>
</svg>
