<svg width="35" height="30" viewBox="0 0 35 30" fill="none" xmlns="http://www.w3.org/2000/svg">
<path d="M0 4.37507C0 1.96003 1.96003 0 4.37507 0H30.6255C33.0405 0 35.0006 1.96003 35.0006 4.37507V9.84266C34.5496 9.52272 34.0521 9.27398 33.5255 9.10515L32.5005 8.78014V4.37507C32.5005 3.87778 32.303 3.40086 31.9513 3.04922C31.5997 2.69759 31.1228 2.50004 30.6255 2.50004H4.37507C3.87778 2.50004 3.40086 2.69759 3.04922 3.04922C2.69759 3.40086 2.50004 3.87778 2.50004 4.37507V20.6253C2.50004 21.6603 3.34005 22.5004 4.37507 22.5004H10.0002V20.0003C10.0002 19.3373 10.2636 18.7014 10.7324 18.2325C11.2013 17.7637 11.8371 17.5003 12.5002 17.5003H22.5004C23.1634 17.5003 23.7993 17.7637 24.2682 18.2325C24.737 18.7014 25.0004 19.3373 25.0004 20.0003V20.5128C24.114 20.4936 23.2425 20.7428 22.5004 21.2278V20.0003H12.5002V22.5004H21.2103L20.0228 24.2454L19.8428 24.5454L19.8103 24.6004C19.7406 24.7306 19.6772 24.8641 19.6203 25.0004H4.37507C3.21473 25.0004 2.10191 24.5395 1.28143 23.719C0.460944 22.8985 0 21.7857 0 20.6253V4.37507Z" fill="white"/>
<path d="M34.8006 13.7626C34.9306 14.3376 34.9981 14.9427 35.0006 15.5752V15.6452C34.9931 17.8302 34.2131 20.3477 32.6606 23.1953C32.3356 23.7953 32.0056 24.3553 31.6681 24.8753C29.9255 27.5779 28.048 29.2429 26.033 29.8729C25.5742 30.0147 25.0869 30.0382 24.6166 29.9412C24.1463 29.8441 23.7081 29.6297 23.3429 29.3179L23.1429 29.1354L22.3704 28.3604C22.0446 28.0251 21.834 27.5947 21.7693 27.1317C21.7046 26.6687 21.789 26.1971 22.0104 25.7853L22.1254 25.6003L23.2929 23.8853C23.4855 23.5979 23.7507 23.3665 24.0615 23.2146C24.3724 23.0627 24.7179 22.9957 25.0629 23.0203C25.138 23.0253 25.2155 23.0378 25.293 23.0528L25.498 23.1103L27.6505 23.8278C28.5105 23.1778 29.2255 22.3578 29.8005 21.3728C30.293 20.5277 30.613 19.6702 30.7655 18.8002L30.828 18.3652L29.0355 16.6652C28.7453 16.3835 28.5389 16.0269 28.4392 15.635C28.3394 15.2431 28.3503 14.8313 28.4705 14.4451L28.5455 14.2326L29.3605 12.3151C29.5283 11.8902 29.8392 11.5373 30.2395 11.3173C30.6398 11.0973 31.1044 11.024 31.5531 11.1101L31.7456 11.1601L32.7631 11.4851C33.7756 11.8101 34.5481 12.6751 34.7981 13.7601L34.8006 13.7626Z" fill="white"/>
<path d="M17.5003 15.0003C18.8264 15.0003 20.0982 14.4735 21.0359 13.5358C21.9736 12.5981 22.5003 11.3263 22.5003 10.0002C22.5003 8.6741 21.9736 7.40231 21.0359 6.46461C20.0982 5.52691 18.8264 5.00012 17.5003 5.00012C16.1742 5.00012 14.9024 5.52691 13.9647 6.46461C13.027 7.40231 12.5002 8.6741 12.5002 10.0002C12.5002 11.3263 13.027 12.5981 13.9647 13.5358C14.9024 14.4735 16.1742 15.0003 17.5003 15.0003ZM17.5003 12.5002C16.8372 12.5002 16.2013 12.2368 15.7325 11.768C15.2636 11.2991 15.0002 10.6633 15.0002 10.0002C15.0002 9.33715 15.2636 8.70126 15.7325 8.23241C16.2013 7.76356 16.8372 7.50016 17.5003 7.50016C18.1633 7.50016 18.7992 7.76356 19.2681 8.23241C19.7369 8.70126 20.0003 9.33715 20.0003 10.0002C20.0003 10.6633 19.7369 11.2991 19.2681 11.768C18.7992 12.2368 18.1633 12.5002 17.5003 12.5002Z" fill="white"/>
</svg>
