<svg width="94" height="80" viewBox="0 0 94 80" fill="none" xmlns="http://www.w3.org/2000/svg">
<path d="M0 11.2104C0 8.23724 1.1811 5.38582 3.28346 3.28346C5.38582 1.1811 8.23724 0 11.2104 0H78.473C81.4462 0 84.2976 1.1811 86.4 3.28346C88.5024 5.38582 89.6835 8.23724 89.6835 11.2104V26.21C89.1001 25.9118 88.4989 25.6497 87.8834 25.4253L87.8193 25.3996L87.0666 25.1498L84.706 24.4387C84.2376 24.2969 83.7604 24.1856 83.2775 24.1056V11.2104C83.2775 9.93621 82.7713 8.71417 81.8703 7.81316C80.9693 6.91214 79.7472 6.40596 78.473 6.40596H11.2104C9.93621 6.40596 8.71417 6.91214 7.81316 7.81316C6.91214 8.71417 6.40596 9.93621 6.40596 11.2104V52.8492C6.40596 54.1234 6.91214 55.3454 7.81316 56.2464C8.71417 57.1475 9.93621 57.6536 11.2104 57.6536H25.6238V51.2477C25.6238 49.5487 26.2988 47.9193 27.5001 46.718C28.7015 45.5166 30.3308 44.8417 32.0298 44.8417H57.6536C59.3526 44.8417 60.982 45.5166 62.1833 46.718C63.3847 47.9193 64.0596 49.5487 64.0596 51.2477V54.0631C62.6938 54.0608 61.3432 54.3495 60.0978 54.9101C58.8524 55.4707 57.7407 56.2902 56.8369 57.3141L56.76 57.4038L56.3212 57.9547L51.9139 64.0596H11.2104C8.23724 64.0596 5.38582 62.8785 3.28346 60.7762C1.1811 58.6738 0 55.8224 0 52.8492V11.2104ZM57.6536 25.6238C57.6536 29.0218 56.3038 32.2805 53.9011 34.6832C51.4984 37.0859 48.2397 38.4358 44.8417 38.4358C41.4438 38.4358 38.185 37.0859 35.7823 34.6832C33.3796 32.2805 32.0298 29.0218 32.0298 25.6238C32.0298 22.2259 33.3796 18.9671 35.7823 16.5644C38.185 14.1617 41.4438 12.8119 44.8417 12.8119C48.2397 12.8119 51.4984 14.1617 53.9011 16.5644C56.3038 18.9671 57.6536 22.2259 57.6536 25.6238ZM75.8658 32.0682C76.575 30.7876 77.7013 29.7885 79.0574 29.2371C80.4135 28.6858 81.9176 28.6156 83.3191 29.0382L85.6157 29.7301L86.2306 29.9351C88.133 30.631 89.8112 31.8295 91.0869 33.403C92.3626 34.9765 93.1882 36.8662 93.4758 38.8714C94.4271 45.4951 92.3003 53.2399 87.1723 62.1218C82.0572 70.9813 76.4263 76.689 70.2286 79.1873C68.2372 79.9899 66.0572 80.2037 63.9478 79.8034C61.8384 79.4031 59.8884 78.4055 58.3295 76.9292L56.5935 75.2829L56.2027 74.8793C55.2373 73.79 54.6716 72.4044 54.5988 70.9506C54.526 69.4969 54.9505 68.0617 55.8023 66.8814L60.1488 60.8598L60.4402 60.4947C61.0507 59.803 61.8474 59.3016 62.7352 59.0506C63.6229 58.7995 64.5642 58.8094 65.4465 59.079L72.0158 61.0872L72.1856 61.1193H72.3233C73.108 61.0328 74.7031 59.4473 76.6633 56.0522C78.8414 52.279 79.2898 50.0722 78.6908 49.5021L75.3501 46.3888L74.9241 45.9628C73.8606 44.8103 73.1594 43.3706 72.9077 41.8227C72.656 40.2749 72.8649 38.6871 73.5084 37.2571L75.6288 32.5455L75.8658 32.0682Z" fill="url(#paint0_linear)"/>
<defs>
<linearGradient id="paint0_linear" x1="46.8483" y1="0" x2="46.8483" y2="80" gradientUnits="userSpaceOnUse">
<stop stop-color="#0107AC"/>
<stop offset="1" stop-color="#00037C"/>
</linearGradient>
</defs>
</svg>
