<svg width="34" height="25" viewBox="0 0 34 25" fill="none" xmlns="http://www.w3.org/2000/svg">
<path d="M13.5417 6.25C12.7129 6.25 11.918 6.57924 11.332 7.16529C10.7459 7.75134 10.4167 8.5462 10.4167 9.375V15.625C10.4167 16.4538 10.7459 17.2487 11.332 17.8347C11.918 18.4208 12.7129 18.75 13.5417 18.75H19.7917C20.6205 18.75 21.4153 18.4208 22.0014 17.8347C22.5874 17.2487 22.9167 16.4538 22.9167 15.625V9.375C22.9167 8.5462 22.5874 7.75134 22.0014 7.16529C21.4153 6.57924 20.6205 6.25 19.7917 6.25H13.5417Z" fill="#C6C4FF"/>
<path d="M0 4.16667C0 3.0616 0.438987 2.00179 1.22039 1.22039C2.00179 0.438987 3.0616 0 4.16667 0H29.1667C30.2717 0 31.3315 0.438987 32.1129 1.22039C32.8943 2.00179 33.3333 3.0616 33.3333 4.16667V20.8333C33.3333 21.9384 32.8943 22.9982 32.1129 23.7796C31.3315 24.561 30.2717 25 29.1667 25H4.16667C3.0616 25 2.00179 24.561 1.22039 23.7796C0.438987 22.9982 0 21.9384 0 20.8333V4.16667ZM31.25 4.16667C31.25 3.61413 31.0305 3.08423 30.6398 2.69353C30.2491 2.30283 29.7192 2.08333 29.1667 2.08333H4.16667C3.61413 2.08333 3.08423 2.30283 2.69353 2.69353C2.30283 3.08423 2.08333 3.61413 2.08333 4.16667V20.8333C2.08333 21.3859 2.30283 21.9158 2.69353 22.3065C3.08423 22.6972 3.61413 22.9167 4.16667 22.9167H29.1667C29.7192 22.9167 30.2491 22.6972 30.6398 22.3065C31.0305 21.9158 31.25 21.3859 31.25 20.8333V4.16667Z" fill="#C6C4FF"/>
</svg>
