<svg width="32" height="35" viewBox="0 0 32 35" fill="none" xmlns="http://www.w3.org/2000/svg">
<path d="M25.0801 18.3774L15.896 16.8664L17.2135 15.9283L19.4191 16.2335L21.6219 15.9283L25.0801 18.3774Z" fill="url(#paint0_linear)"/>
<path d="M19.419 1.02164C19.8569 1.02164 20.2904 1.10789 20.6949 1.27548C21.0994 1.44307 21.4669 1.6887 21.7765 1.99835C22.086 2.308 22.3315 2.6756 22.499 3.08015C22.6664 3.4847 22.7526 3.91827 22.7524 4.35611C22.7524 6.19821 21.5784 7.69058 19.419 7.69058C18.976 7.69863 18.5359 7.61833 18.1243 7.45437C17.7127 7.29041 17.3379 7.04607 17.0218 6.73564C16.7056 6.42521 16.4545 6.0549 16.2831 5.64634C16.1117 5.23779 16.0235 4.79917 16.0235 4.35611C16.0235 3.91305 16.1117 3.47444 16.2831 3.06588C16.4545 2.65732 16.7056 2.28701 17.0218 1.97658C17.3379 1.66615 17.7127 1.42182 18.1243 1.25786C18.5359 1.09389 18.976 1.01359 19.419 1.02164Z" fill="url(#paint1_linear)"/>
<path d="M20.2488 25.1209V33.1793C20.2488 33.6622 20.4407 34.1253 20.7821 34.4667C21.1235 34.8082 21.5866 35 22.0695 35C22.5524 35 23.0154 34.8082 23.3569 34.4667C23.6983 34.1253 23.8901 33.6622 23.8901 33.1793V25.1209C23.8785 24.6457 23.6815 24.194 23.3414 23.8621C23.0012 23.5302 22.5447 23.3444 22.0695 23.3444C21.5942 23.3444 21.1378 23.5302 20.7976 23.8621C20.4575 24.194 20.2605 24.6457 20.2488 25.1209Z" fill="url(#paint2_linear)"/>
<path d="M31.4015 29.7216C31.4013 30.0016 31.2902 30.2701 31.0924 30.4682C30.8945 30.6663 30.6262 30.7779 30.3463 30.7785H24.7639V25.5019H27.1784V20.2285C27.1784 19.6478 27.6518 19.1738 28.2331 19.1738H30.3463C30.9269 19.1738 31.4015 19.6473 31.4015 20.2285V29.7216Z" fill="url(#paint3_linear)"/>
<path d="M19.3778 30.778H8.54023C8.40149 30.778 8.26412 30.7506 8.13595 30.6975C8.00779 30.6444 7.89135 30.5665 7.7933 30.4684C7.69525 30.3702 7.61751 30.2537 7.56451 30.1255C7.51152 29.9973 7.48432 29.8598 7.48446 29.7211V20.228C7.48475 19.9482 7.59612 19.6799 7.79408 19.4821C7.99204 19.2844 8.26042 19.1733 8.54023 19.1733H10.6523C11.2346 19.1733 11.7081 19.6468 11.7081 20.228V25.5013H19.3778V30.778Z" fill="url(#paint4_linear)"/>
<path d="M13.6711 19.3926C13.5928 19.8691 13.7068 20.3571 13.9881 20.7495C14.2693 21.1419 14.6949 21.4066 15.1712 21.4855L23.1219 22.7959C23.5983 22.8737 24.0861 22.7593 24.4783 22.4779C24.8704 22.1965 25.1349 21.7709 25.2137 21.2947C25.2527 21.0589 25.2448 20.8177 25.1905 20.5849C25.1362 20.3521 25.0365 20.1323 24.8972 19.9381C24.7579 19.7439 24.5816 19.579 24.3785 19.453C24.1754 19.3269 23.9495 19.2421 23.7136 19.2035L15.7629 17.892C15.2866 17.8142 14.7988 17.9284 14.4067 18.2098C14.0145 18.4911 13.75 18.9165 13.6711 19.3926Z" fill="url(#paint5_linear)"/>
<path d="M4.70423 9.4123C2.10989 9.4123 0 7.30241 0 4.70642C0 2.11044 2.10989 0 4.70423 0C7.29856 0 9.4112 2.11099 9.4112 4.70642C9.4112 7.30241 7.29856 9.4123 4.70423 9.4123ZM4.70423 8.24765C5.64326 8.24649 6.5435 7.87298 7.20755 7.20904C7.8716 6.54509 8.24524 5.6449 8.24655 4.70587C8.24655 2.75435 6.65575 1.1641 4.70423 1.1641C2.75105 1.1641 1.1641 2.75435 1.1641 4.70587C1.16468 5.64475 1.53779 6.54502 2.20152 7.20906C2.86525 7.8731 3.76535 8.24663 4.70423 8.24765Z" fill="url(#paint6_linear)"/>
<path d="M4.72843 5.32783C4.67453 5.35259 4.61523 5.36326 4.55608 5.35884C4.49693 5.35441 4.43987 5.33504 4.39025 5.30254C4.348 5.27546 4.31201 5.23968 4.2847 5.19757C4.25739 5.15547 4.23938 5.10802 4.23189 5.05839L4.22694 2.32329C4.23055 2.23185 4.2694 2.14537 4.33537 2.08195C4.40133 2.01854 4.48928 1.98312 4.58079 1.98312C4.67229 1.98312 4.76024 2.01854 4.82621 2.08195C4.89217 2.14537 4.93103 2.23185 4.93464 2.32329V4.44527L6.74869 3.59076C6.79063 3.57074 6.83611 3.5592 6.88252 3.55679C6.92893 3.55439 6.97536 3.56117 7.01914 3.57676C7.06293 3.59234 7.1032 3.61641 7.13766 3.64759C7.17212 3.67878 7.20008 3.71646 7.21994 3.75847C7.25985 3.84338 7.26449 3.94064 7.23285 4.02896C7.20121 4.11728 7.13587 4.18947 7.05112 4.22972L4.72843 5.32728V5.32783Z" fill="url(#paint7_linear)"/>
<path d="M19.419 10.3433L23.7416 9.63941V12.6781L25.8757 14.2832C26.0808 14.4899 25.9978 14.7253 25.9494 14.7918C25.8914 14.8689 25.8053 14.92 25.7097 14.9338C25.6142 14.9476 25.5171 14.9231 25.4397 14.8655L22.7464 12.8298C22.4781 12.6485 22.1494 12.5795 21.8308 12.6378C21.5123 12.6961 21.2293 12.8769 21.0426 13.1415C20.8559 13.4061 20.7804 13.7333 20.8322 14.053C20.8841 14.3726 21.0592 14.6592 21.32 14.8512L25.9219 18.0834C26.1358 18.234 26.4399 18.3369 26.7429 18.3369C27.0013 18.3369 27.3054 18.2296 27.532 18.0691C28.0148 17.726 28.1924 17.1172 28.0285 16.5564L26.3195 11.5063C25.8631 10.2514 24.7122 8.77445 22.9834 8.77445H15.8542C14.1259 8.77445 12.975 10.2514 12.518 11.5063L10.809 16.5564C10.6446 17.1172 10.8233 17.7265 11.3061 18.0691C11.531 18.2296 11.8362 18.3369 12.0935 18.3369C12.3982 18.3369 12.7028 18.2346 12.9161 18.0834L17.5181 14.8512C17.7789 14.6592 17.954 14.3726 18.0058 14.053C18.0577 13.7333 17.9822 13.4061 17.7955 13.1415C17.6087 12.8769 17.3258 12.6961 17.0072 12.6378C16.6887 12.5795 16.36 12.6485 16.0917 12.8298L13.3967 14.8655C13.3194 14.9229 13.2225 14.9473 13.1272 14.9335C13.0319 14.9197 12.946 14.8688 12.8881 14.7918C12.8392 14.7118 12.8198 14.6172 12.833 14.5244C12.8463 14.4316 12.8914 14.3463 12.9607 14.2832C12.9607 14.2832 14.408 13.196 15.0959 12.6781V9.63941L19.419 10.3438V10.3433Z" fill="url(#paint8_linear)"/>
<defs>
<linearGradient id="paint0_linear" x1="20.488" y1="15.9283" x2="20.488" y2="18.3774" gradientUnits="userSpaceOnUse">
<stop stop-color="#010688"/>
<stop offset="1" stop-color="#000459"/>
</linearGradient>
<linearGradient id="paint1_linear" x1="19.3879" y1="1.02109" x2="19.3879" y2="7.69113" gradientUnits="userSpaceOnUse">
<stop stop-color="#010688"/>
<stop offset="1" stop-color="#000459"/>
</linearGradient>
<linearGradient id="paint2_linear" x1="22.0695" y1="23.3444" x2="22.0695" y2="35" gradientUnits="userSpaceOnUse">
<stop stop-color="#010688"/>
<stop offset="1" stop-color="#000459"/>
</linearGradient>
<linearGradient id="paint3_linear" x1="28.0827" y1="19.1738" x2="28.0827" y2="30.7785" gradientUnits="userSpaceOnUse">
<stop stop-color="#010688"/>
<stop offset="1" stop-color="#000459"/>
</linearGradient>
<linearGradient id="paint4_linear" x1="13.4311" y1="19.1733" x2="13.4311" y2="30.778" gradientUnits="userSpaceOnUse">
<stop stop-color="#010688"/>
<stop offset="1" stop-color="#000459"/>
</linearGradient>
<linearGradient id="paint5_linear" x1="19.4425" y1="17.8681" x2="19.4425" y2="22.8197" gradientUnits="userSpaceOnUse">
<stop stop-color="#010688"/>
<stop offset="1" stop-color="#000459"/>
</linearGradient>
<linearGradient id="paint6_linear" x1="4.7056" y1="0" x2="4.7056" y2="9.4123" gradientUnits="userSpaceOnUse">
<stop stop-color="#010688"/>
<stop offset="1" stop-color="#000459"/>
</linearGradient>
<linearGradient id="paint7_linear" x1="5.74028" y1="1.98312" x2="5.74028" y2="5.35981" gradientUnits="userSpaceOnUse">
<stop stop-color="#010688"/>
<stop offset="1" stop-color="#000459"/>
</linearGradient>
<linearGradient id="paint8_linear" x1="19.4187" y1="8.77445" x2="19.4187" y2="18.3369" gradientUnits="userSpaceOnUse">
<stop stop-color="#010688"/>
<stop offset="1" stop-color="#000459"/>
</linearGradient>
</defs>
</svg>
