<svg width="27" height="30" viewBox="0 0 27 30" fill="none" xmlns="http://www.w3.org/2000/svg">
<path d="M21.4972 15.7521L13.6251 14.4569L14.7544 13.6528L16.6449 13.9144L18.533 13.6528L21.4972 15.7521Z" fill="#C6C4FF"/>
<path d="M16.6449 0.875716C17.0202 0.875715 17.3918 0.94965 17.7385 1.0933C18.0852 1.23694 18.4002 1.44748 18.6655 1.7129C18.9309 1.97831 19.1413 2.29339 19.2848 2.64015C19.4284 2.98691 19.5022 3.35855 19.5021 3.73384C19.5021 5.31278 18.4958 6.59196 16.6449 6.59196C16.2652 6.59885 15.8879 6.53002 15.5351 6.38948C15.1823 6.24895 14.861 6.03952 14.5901 5.77343C14.3191 5.50735 14.1039 5.18994 13.957 4.83975C13.81 4.48956 13.7344 4.1136 13.7344 3.73384C13.7344 3.35407 13.81 2.97811 13.957 2.62792C14.1039 2.27773 14.3191 1.96032 14.5901 1.69424C14.861 1.42815 15.1823 1.21873 15.5351 1.07819C15.8879 0.93765 16.2652 0.86882 16.6449 0.875716Z" fill="#C6C4FF"/>
<path d="M17.3561 21.5322V28.4395C17.3561 28.8534 17.5206 29.2503 17.8132 29.543C18.1059 29.8356 18.5028 30 18.9167 30C19.3306 30 19.7275 29.8356 20.0202 29.543C20.3128 29.2503 20.4773 28.8534 20.4773 28.4395V21.5322C20.4672 21.1249 20.2984 20.7377 20.0069 20.4533C19.7153 20.1688 19.3241 20.0095 18.9167 20.0095C18.5093 20.0095 18.1181 20.1688 17.8265 20.4533C17.535 20.7377 17.3661 21.1249 17.3561 21.5322Z" fill="#C6C4FF"/>
<path d="M26.9155 25.4757C26.9154 25.7156 26.8201 25.9458 26.6506 26.1156C26.481 26.2854 26.251 26.3811 26.0111 26.3816H21.2262V21.8587H23.2958V17.3387C23.2958 16.841 23.7016 16.4347 24.1998 16.4347H26.0111C26.5088 16.4347 26.9155 16.8405 26.9155 17.3387V25.4757Z" fill="#C6C4FF"/>
<path d="M16.6096 26.3812H7.3202C7.20128 26.3812 7.08353 26.3577 6.97367 26.3122C6.86382 26.2667 6.76402 26.1999 6.67997 26.1158C6.59593 26.0317 6.52929 25.9318 6.48387 25.8219C6.43844 25.712 6.41513 25.5942 6.41525 25.4753V17.3383C6.4155 17.0985 6.51096 16.8686 6.68064 16.699C6.85032 16.5295 7.08036 16.4343 7.3202 16.4343H9.13056C9.6297 16.4343 10.0355 16.8401 10.0355 17.3383V21.8583H16.6096V26.3812Z" fill="#C6C4FF"/>
<path d="M11.7181 16.6223C11.651 17.0306 11.7487 17.4489 11.9898 17.7853C12.2309 18.1216 12.5956 18.3485 13.0039 18.4161L19.8188 19.5393C20.2271 19.606 20.6452 19.508 20.9814 19.2668C21.3175 19.0255 21.5442 18.6608 21.6117 18.2526C21.6451 18.0504 21.6384 17.8437 21.5918 17.6442C21.5453 17.4446 21.4599 17.2563 21.3404 17.0898C21.221 16.9233 21.07 16.782 20.8959 16.674C20.7218 16.5659 20.5281 16.4933 20.3259 16.4601L13.511 15.336C13.1028 15.2693 12.6847 15.3672 12.3486 15.6084C12.0125 15.8495 11.7857 16.2141 11.7181 16.6223Z" fill="#C6C4FF"/>
<path d="M4.03219 8.06768C1.80848 8.06768 0 6.25921 0 4.03408C0 1.80895 1.80848 0 4.03219 0C6.25591 0 8.06674 1.80942 8.06674 4.03408C8.06674 6.25921 6.25591 8.06768 4.03219 8.06768ZM4.03219 7.06942C4.83708 7.06842 5.60872 6.74827 6.1779 6.17917C6.74708 5.61008 7.06735 4.83849 7.06847 4.03361C7.06847 2.36087 5.70493 0.997797 4.03219 0.997797C2.35804 0.997797 0.997797 2.36087 0.997797 4.03361C0.998296 4.83836 1.31811 5.61002 1.88702 6.1792C2.45593 6.74837 3.22744 7.06854 4.03219 7.06942Z" fill="#C6C4FF"/>
<path d="M4.05293 4.56673C4.00673 4.58795 3.95589 4.5971 3.90519 4.59331C3.8545 4.58951 3.80559 4.57291 3.76306 4.54505C3.72684 4.52184 3.69599 4.49117 3.67258 4.45508C3.64918 4.41899 3.63374 4.37831 3.62732 4.33578L3.62308 1.9914C3.62617 1.91303 3.65947 1.8389 3.71602 1.78454C3.77256 1.73019 3.84794 1.69983 3.92638 1.69983C4.00481 1.69983 4.08019 1.73019 4.13674 1.78454C4.19328 1.8389 4.22658 1.91303 4.22967 1.9914V3.81025L5.78458 3.07781C5.82053 3.06065 5.85951 3.05076 5.89929 3.0487C5.93907 3.04664 5.97887 3.05245 6.01639 3.06581C6.05392 3.07916 6.08844 3.0998 6.11798 3.12653C6.14751 3.15325 6.17148 3.18555 6.1885 3.22156C6.22271 3.29434 6.22669 3.37771 6.19957 3.45341C6.17245 3.52911 6.11644 3.59099 6.04381 3.62549L4.05293 4.56626V4.56673Z" fill="#C6C4FF"/>
<path d="M16.6449 8.86569L20.35 8.26239V10.8669L22.1792 12.2427C22.355 12.42 22.2838 12.6217 22.2423 12.6787C22.1927 12.7449 22.1188 12.7886 22.0369 12.8005C21.955 12.8123 21.8718 12.7912 21.8054 12.7419L19.4969 10.997C19.2669 10.8416 18.9852 10.7825 18.7121 10.8324C18.4391 10.8824 18.1965 11.0374 18.0365 11.2642C17.8765 11.491 17.8117 11.7715 17.8562 12.0454C17.9006 12.3194 18.0507 12.5651 18.2743 12.7296L22.2188 15.5001C22.4021 15.6292 22.6628 15.7174 22.9225 15.7174C23.144 15.7174 23.4046 15.6254 23.5988 15.4878C24.0126 15.1937 24.1649 14.672 24.0244 14.1912L22.5595 9.86254C22.1683 8.78698 21.1819 7.521 19.7 7.521H13.5893C12.1079 7.521 11.1214 8.78698 10.7297 9.86254L9.26486 14.1912C9.12393 14.672 9.27712 15.1942 9.69094 15.4878C9.88371 15.6254 10.1453 15.7174 10.3659 15.7174C10.627 15.7174 10.8881 15.6297 11.071 15.5001L15.0155 12.7296C15.239 12.5651 15.3891 12.3194 15.4336 12.0454C15.478 11.7715 15.4133 11.491 15.2532 11.2642C15.0932 11.0374 14.8506 10.8824 14.5776 10.8324C14.3046 10.7825 14.0228 10.8416 13.7929 10.997L11.4829 12.7419C11.4166 12.7911 11.3336 12.812 11.2519 12.8002C11.1702 12.7884 11.0965 12.7447 11.0469 12.6787C11.0051 12.6101 10.9884 12.5291 10.9997 12.4495C11.0111 12.37 11.0498 12.2969 11.1092 12.2427C11.1092 12.2427 12.3497 11.3109 12.9393 10.8669V8.26239L16.6449 8.86616V8.86569Z" fill="#C6C4FF"/>
</svg>
